<svg version="1.2" xmlns="http://www.w3.org/2000/svg" viewBox="0 0 175 109" width="175" height="109"><defs><filter x="-50%" y="-50%" width="200%" height="200%" id="f1" ><feDropShadow dx="-6.735557395310443e-16" dy="11" stdDeviation="15.416666666666668" flood-color="#5271ff" flood-opacity=".3"/></filter><filter x="-50%" y="-50%" width="200%" height="200%" id="f2" ><feDropShadow dx="-6.735557395310443e-16" dy="11" stdDeviation="15.416666666666668" flood-color="#5271ff" flood-opacity=".3"/></filter></defs><style>.a{opacity:.6;fill:#7cbaea}.b{filter:url(#f1);fill:#fff}.c{filter:url(#f2);fill:#fff}.d{fill:#b2d6f3}.e{fill:#d0d0e4}.f{fill:#aed2f3}.g{opacity:.1}.h{fill:#fff}.i{fill:#fffefd}</style><path class="a" d="m70 5h100c2.8 0 5 2.2 5 5v84c0 2.8-2.2 5-5 5h-100c-2.8 0-5-2.2-5-5v-84c0-2.8 2.2-5 5-5z"/><path class="a" d="m70 5h100c2.8 0 5 2.2 5 5v84c0 2.8-2.2 5-5 5h-100c-2.8 0-5-2.2-5-5v-84c0-2.8 2.2-5 5-5z"/><path class="a" d="m76 24h89c2.8 0 5 2.2 5 5v62c0 2.8-2.2 5-5 5h-89c-2.8 0-5-2.2-5-5v-62c0-2.8 2.2-5 5-5z"/><path class="a" d="m76 24h89c2.8 0 5 2.2 5 5v62c0 2.8-2.2 5-5 5h-89c-2.8 0-5-2.2-5-5v-62c0-2.8 2.2-5 5-5z"/><path class="b" d="m42 28h87c1.7 0 3 1.3 3 3v26c0 1.7-1.3 3-3 3h-87c-1.7 0-3-1.3-3-3v-26c0-1.7 1.3-3 3-3z"/><path class="c" d="m42 28h87c1.7 0 3 1.3 3 3v26c0 1.7-1.3 3-3 3h-87c-1.7 0-3-1.3-3-3v-26c0-1.7 1.3-3 3-3z"/><path class="d" d="m82 35h37c1.1 0 2 0.9 2 2 0 1.1-0.9 2-2 2h-37c-1.1 0-2-0.9-2-2 0-1.1 0.9-2 2-2z"/><path class="e" d="m82 43h23c1.1 0 2 0.9 2 2 0 1.1-0.9 2-2 2h-23c-1.1 0-2-0.9-2-2 0-1.1 0.9-2 2-2z"/><path class="e" d="m82 50h41c1.1 0 2 0.9 2 2 0 1.1-0.9 2-2 2h-41c-1.1 0-2-0.9-2-2 0-1.1 0.9-2 2-2z"/><path class="d" d="m49 34h23c1.7 0 3 1.3 3 3v15c0 1.7-1.3 3-3 3h-23c-1.7 0-3-1.3-3-3v-15c0-1.7 1.3-3 3-3z"/><path class="e" d="m116 66h37c1.1 0 2 0.9 2 2 0 1.1-0.9 2-2 2h-37c-1.1 0-2-0.9-2-2 0-1.1 0.9-2 2-2z"/><path class="e" d="m116 74h23c1.1 0 2 0.9 2 2 0 1.1-0.9 2-2 2h-23c-1.1 0-2-0.9-2-2 0-1.1 0.9-2 2-2z"/><path class="e" d="m116 81h41c1.1 0 2 0.9 2 2 0 1.1-0.9 2-2 2h-41c-1.1 0-2-0.9-2-2 0-1.1 0.9-2 2-2z"/><path class="f" d="m83 65h23c1.7 0 3 1.3 3 3v15c0 1.7-1.3 3-3 3h-23c-1.7 0-3-1.3-3-3v-15c0-1.7 1.3-3 3-3z"/><path class="g" d="m71 60h60l-60 34z"/><path class="h" d="m67 41.7l-6.9 6.9q-0.2 0.2-0.6 0.2-0.4 0-0.6-0.2l-3.9-3.9q-0.3-0.3-0.3-0.7c0-0.4 0.4-0.9 0.9-0.9q0.4 0.1 0.6 0.3l3.3 3.3 6.3-6.3q0.2-0.2 0.6-0.3c0.5 0 0.9 0.5 0.9 0.9q0 0.4-0.3 0.7z"/><path class="h" d="m75 12c1.7 0 3 1.3 3 3 0 1.7-1.3 3-3 3-1.7 0-3-1.3-3-3 0-1.7 1.3-3 3-3z"/><path class="h" d="m85 12c1.7 0 3 1.3 3 3 0 1.7-1.3 3-3 3-1.7 0-3-1.3-3-3 0-1.7 1.3-3 3-3z"/><path class="i" d="m94 12c1.7 0 3 1.3 3 3 0 1.7-1.3 3-3 3-1.7 0-3-1.3-3-3 0-1.7 1.3-3 3-3z"/><path class="h" d="m104 12h47c1.7 0 3 1.3 3 3 0 1.7-1.3 3-3 3h-47c-1.7 0-3-1.3-3-3 0-1.7 1.3-3 3-3z"/><path class="h" d="m104 12h47c1.7 0 3 1.3 3 3 0 1.7-1.3 3-3 3h-47c-1.7 0-3-1.3-3-3 0-1.7 1.3-3 3-3z"/></svg>